<?xml version="1.0" encoding="UTF-8" standalone="no"?>
<svg
   xmlns:dc="http://purl.org/dc/elements/1.1/"
   xmlns:cc="http://creativecommons.org/ns#"
   xmlns:rdf="http://www.w3.org/1999/02/22-rdf-syntax-ns#"
   xmlns:svg="http://www.w3.org/2000/svg"
   xmlns="http://www.w3.org/2000/svg"
   id="svg8"
   version="1.1"
   viewBox="0 0 120 200"
   height="200mm"
   width="120mm">
  <defs
     id="defs2" />
  <metadata
     id="metadata5">
    <rdf:RDF>
      <cc:Work
         rdf:about="">
        <dc:format>image/svg+xml</dc:format>
        <dc:type
           rdf:resource="http://purl.org/dc/dcmitype/StillImage" />
        <dc:title></dc:title>
      </cc:Work>
    </rdf:RDF>
  </metadata>
  <g
     transform="translate(0,-97)"
     id="layer1">
    <g
       transform="matrix(1.7548055,0,0,1.7548055,-113.50351,-10.724361)"
       id="g124">
      <path
         id="path128"
         d="m 69.292939,118.03254 c -0.201261,-0.20126 -0.3175,-1.21513 -0.3175,-2.76931 v -2.4518 l 0.992187,-0.992 0.992188,-0.992 0.132291,-16.280883 0.132292,-16.280884 0.640879,-0.94662 c 0.352484,-0.520642 1.066859,-1.235017 1.5875,-1.5875 0.928915,-0.628892 1.053023,-0.640879 6.635162,-0.640879 5.628355,0 5.698978,0.007 6.674921,0.661458 1.079706,0.724043 1.326361,1.113424 1.092067,1.723984 -0.08465,0.220587 -3.125973,1.894493 -6.758502,3.719791 -6.42878,3.230377 -6.617999,3.348241 -7.108023,4.427577 -0.276883,0.60987 -0.506039,1.35913 -0.509235,1.665018 -0.0032,0.30589 0.648304,1.888963 1.447778,3.517942 1.339462,2.729238 1.542002,3.001907 2.579687,3.472921 0.619355,0.28113 1.381525,0.51376 1.693712,0.516956 0.312187,0.0032 2.497995,-0.950548 4.857351,-2.119429 3.378084,-1.673585 4.367982,-2.060305 4.657908,-1.819688 0.302297,0.250886 0.368169,2.047431 0.368169,10.041156 v 9.73559 l 1.058334,1.10151 1.058333,1.10152 v 2.43903 c 0,1.54425 -0.116478,2.55551 -0.3175,2.75654 -0.456049,0.45605 -21.133951,0.45605 -21.589999,0 z m 8.606696,-25.106767 c -0.649545,-0.378153 -2.83878,-4.821716 -2.83878,-5.761969 0,-0.423349 0.20836,-1.011081 0.463021,-1.30607 0.254662,-0.294987 11.331972,-5.972119 24.616244,-12.615846 25.59542,-12.800773 24.9742,-12.531429 26.06104,-11.299248 0.66532,0.754294 2.57011,4.764079 2.57011,5.410363 0,0.334653 -0.18884,0.878073 -0.41966,1.207601 -0.55713,0.795421 -48.245066,24.657134 -49.255284,24.645971 -0.400499,-0.0044 -0.93901,-0.130786 -1.196691,-0.280802 z m 3.51122,-3.415318 c 1.145165,-1.145165 0.2994,-3.175 -1.322917,-3.175 -1.018456,0 -1.852083,0.833628 -1.852083,1.852083 0,1.018455 0.833627,1.852083 1.852083,1.852083 0.440973,0 1.028936,-0.235185 1.322917,-0.529166 z m 12.610668,-6.391828 c 0.448781,-0.568238 1.65866,-4.436089 1.431533,-4.576461 -0.113575,-0.07019 -1.678639,0.633745 -3.477921,1.564307 l -3.271421,1.691931 -0.729719,2.171681 c -0.401346,1.194427 -0.667223,2.272805 -0.590838,2.3964 0.15809,0.255794 6.209568,-2.704925 6.638366,-3.247858 z m 13.229167,-6.614584 c 0.48407,-0.61292 1.64976,-4.441589 1.39941,-4.596315 -0.13125,-0.08111 -1.69424,0.601863 -3.47332,1.517728 l -3.23469,1.665208 -0.73432,2.218261 c -0.40388,1.220043 -0.67183,2.319383 -0.59545,2.442977 0.15809,0.255795 6.20957,-2.704925 6.63837,-3.247859 z m 10.34777,-4.95502 3.10655,-1.557266 0.74905,-2.300078 c 0.41198,-1.265042 0.67202,-2.377109 0.57787,-2.471259 -0.0941,-0.09415 -1.67789,0.599857 -3.51942,1.542239 l -3.34824,1.713422 -0.59982,1.984375 c -0.67376,2.22897 -0.72751,2.645833 -0.34119,2.645833 0.14775,0 1.66659,-0.70077 3.3752,-1.557266 z"
         style="fill:#709f03;stroke-width:0.26458332" />
      <path
         id="path126"
         d="m 69.419372,117.91202 c -0.09864,-0.0986 -0.17935,-1.23372 -0.17935,-2.52241 v -2.34306 l 1.058334,-1.14816 1.058333,-1.14815 0.0058,-15.845416 c 0.0054,-14.808479 0.03762,-15.914668 0.4918,-16.903744 1.113573,-2.425019 2.174221,-2.779662 8.291287,-2.772314 4.104777,0.0049 4.99738,0.0787 5.895477,0.487236 1.199499,0.54564 1.847534,1.202877 1.592658,1.615274 -0.09498,0.15368 -3.130409,1.765633 -6.745398,3.582118 -6.404218,3.218034 -6.586895,3.332006 -7.126129,4.445915 -0.827108,1.708576 -0.70418,2.483913 0.902758,5.693934 1.322722,2.642266 1.560744,2.959483 2.597077,3.461162 0.627493,0.303766 1.506787,0.552299 1.953985,0.552299 0.478992,0 2.460879,-0.815377 4.823298,-1.984375 2.205616,-1.091406 4.183385,-1.984374 4.395043,-1.984374 0.329814,0 0.384833,1.404839 0.384833,9.826135 v 9.82615 l 1.068198,1.15885 1.068199,1.15886 -0.07601,2.44261 -0.07601,2.4426 -10.602421,0.0691 c -5.831331,0.038 -10.683127,-0.0116 -10.78177,-0.11025 z"
         style="fill:#070707;stroke-width:0.26458332" />
    </g>
    <g
       transform="matrix(1.7548055,0,0,1.7548055,6.2054625,62.354713)"
       id="g141">
      <path
         id="path145"
         d="m 1.379755,133.3738 c -0.2004092,-0.20041 -0.3175,-1.20515 -0.3175,-2.72442 v -2.40693 l 1.0506599,-1.02594 1.0506598,-1.02595 0.073819,-16.31261 0.073819,-16.312606 0.7269979,-0.952946 c 1.5802869,-2.071434 1.8934231,-2.170151 7.1967314,-2.268801 5.915952,-0.110045 6.67981,-0.0021 7.986771,1.129118 l 1.022832,0.885259 -0.529167,0.588835 c -0.291042,0.323859 -3.353978,2.002873 -6.806525,3.73114 -5.8869426,2.946874 -6.3106739,3.20761 -6.8130205,4.192291 -0.2946138,0.57749 -0.5356616,1.35437 -0.5356616,1.72639 0,0.37202 0.6545495,1.98154 1.4545542,3.5767 1.2661066,2.52455 1.5903881,2.9696 2.5030011,3.43518 0.5766458,0.29418 1.3457158,0.53488 1.7090448,0.53488 0.363328,0 2.586387,-0.95408 4.94013,-2.12018 3.331066,-1.6503 4.359778,-2.05359 4.641609,-1.81969 0.294498,0.24441 0.362076,2.13627 0.362076,10.13628 v 9.83578 l 1.058334,1.03343 1.058333,1.03344 v 2.40693 c 0,1.51927 -0.117091,2.52401 -0.3175,2.72442 -0.456049,0.45605 -21.1339502,0.45605 -21.589998,0 z m 8.6066962,-25.10676 c -0.6495452,-0.37815 -2.8387798,-4.82172 -2.8387798,-5.76197 0,-0.42335 0.2083594,-1.01108 0.4630208,-1.30607 C 7.8653537,100.90401 18.942664,95.226882 32.22694,88.583155 57.82236,75.782382 57.201134,76.051726 58.287976,77.283907 c 0.665324,0.754294 2.570109,4.764079 2.570109,5.410363 0,0.334653 -0.188843,0.878073 -0.419655,1.207601 -0.557133,0.795421 -48.24507,24.657129 -49.255288,24.645969 -0.400498,-0.004 -0.939009,-0.13078 -1.1966908,-0.2808 z m 3.5112198,-3.41532 c 1.145165,-1.14516 0.2994,-3.175 -1.322917,-3.175 -1.018456,0 -1.852083,0.83363 -1.852083,1.85208 0,1.01846 0.833627,1.85209 1.852083,1.85209 0.440973,0 1.028936,-0.23519 1.322917,-0.52917 z m 12.610668,-6.391826 c 0.448781,-0.568238 1.65866,-4.436089 1.431534,-4.576461 -0.113575,-0.07019 -1.67864,0.633745 -3.477921,1.564307 l -3.271422,1.691931 -0.729719,2.171681 c -0.401346,1.194428 -0.667223,2.272808 -0.590838,2.396398 0.15809,0.2558 6.209568,-2.704923 6.638366,-3.247856 z m 10.095552,-4.828918 c 1.569511,-0.787139 2.979738,-1.590811 3.133839,-1.785937 0.483912,-0.612743 1.649465,-4.441361 1.399183,-4.596044 -0.131247,-0.08111 -1.694074,0.601863 -3.472953,1.517728 l -3.234322,1.665208 -0.583784,1.763633 c -0.32108,0.969999 -0.662546,2.011796 -0.758815,2.315105 -0.273288,0.861054 0.363506,0.701769 3.516852,-0.879693 z m 13.347665,-6.671412 c 1.634686,-0.818395 3.059592,-1.622067 3.16646,-1.785937 0.408826,-0.626897 1.571667,-4.441002 1.404834,-4.607836 -0.09641,-0.09641 -1.681996,0.595753 -3.523525,1.538135 l -3.348239,1.713422 -0.59982,1.984375 c -0.673881,2.229387 -0.727531,2.645833 -0.340855,2.645833 0.147944,0 1.60646,-0.669596 3.241145,-1.487992 z"
         style="fill:#eb262d;stroke-width:0.26458332" />
      <path
         id="path143"
         d="m 1.5001371,133.20745 c -0.3250629,-0.35919 -0.4374329,-0.98976 -0.4361387,-2.4474 0.00184,-2.07804 0.3854667,-3.03114 1.5476859,-3.84519 l 0.5672373,-0.39731 0.00148,-15.66156 c 0.00101,-10.65575 0.095306,-15.999549 0.2950424,-16.71902 0.3832444,-1.380489 2.1603244,-3.157569 3.5408132,-3.540813 1.3449374,-0.373375 8.9345298,-0.38382 10.2658328,-0.01413 0.55346,0.153691 1.382831,0.615877 1.843047,1.027081 0.743861,0.66464 0.79506,0.797885 0.461165,1.200203 -0.206576,0.248908 -3.211769,1.871595 -6.678208,3.605972 -7.0201812,3.512431 -7.3450924,3.783357 -7.3469291,6.126147 -0.00138,1.7474 2.2668102,6.32089 3.5110206,7.07951 1.6478635,1.00474 2.9195385,0.74994 7.3623125,-1.47515 3.172719,-1.58901 4.064997,-1.93415 4.362319,-1.6874 0.309753,0.25708 0.373768,2.00138 0.373768,10.18468 0,9.79545 0.0045,9.87766 0.567238,10.27179 1.170192,0.81963 1.54584,1.76408 1.547686,3.89117 0.0027,3.10297 0.844471,2.88527 -11.156729,2.88527 -9.5366263,0 -10.2188697,-0.0311 -10.6286446,-0.48385 z"
         style="fill:#070707;stroke-width:0.26458332" />
    </g>
  </g>
</svg>
