<?xml version="1.0" encoding="UTF-8" standalone="no"?>
<svg
   xmlns:dc="http://purl.org/dc/elements/1.1/"
   xmlns:cc="http://creativecommons.org/ns#"
   xmlns:rdf="http://www.w3.org/1999/02/22-rdf-syntax-ns#"
   xmlns:svg="http://www.w3.org/2000/svg"
   xmlns="http://www.w3.org/2000/svg"
   version="1.1"
   x="0px"
   y="0px"
   viewBox="0 0 195.3 118.3"
   style="enable-background:new 0 0 195.3 118.3;"
   xml:space="preserve"
   id="svg270"><metadata
   id="metadata276"><rdf:RDF><cc:Work
       rdf:about=""><dc:format>image/svg+xml</dc:format><dc:type
         rdf:resource="http://purl.org/dc/dcmitype/StillImage" /><dc:title></dc:title></cc:Work></rdf:RDF></metadata><defs
   id="defs274">
	
	
	
	
	
	
	
	

		
		
	
			
			
			
			
		</defs>
<style
   type="text/css"
   id="style2">
	.st0{fill:#2A6B24;}
	.st1{fill:#5FBB46;}
	.st2{fill:#DBDBDD;}
	.st3{fill:#B0B0B0;}
	.st4{fill:#FFFFFF;}
	.st5{display:none;}
	.st6{display:inline;fill:#881B1A;}
	.st7{display:inline;fill:#ED1C24;}
	.st8{display:inline;fill:#DBDBDD;}
	.st9{display:inline;fill:#B0B0B0;}
	.st10{display:inline;}
	.st11{fill:#65BD61;}
	.st12{display:inline;fill:#CCCCCB;}
	.st13{display:inline;fill:#FFFFFF;}
	.st14{display:inline;fill:#171717;stroke:#666766;stroke-width:2.7912;stroke-miterlimit:10;}
	.st15{display:inline;fill:url(#SVGID_1_);}
	.st16{display:inline;stroke:#666766;stroke-width:2.7912;stroke-miterlimit:10;}
	.st17{fill:url(#SVGID_2_);}
	.st18{fill:url(#SVGID_3_);}
	.st19{fill:url(#SVGID_4_);}
	.st20{fill:url(#SVGID_5_);}
	.st21{fill:url(#SVGID_6_);}
	.st22{fill:url(#SVGID_7_);}
	.st23{fill:url(#SVGID_8_);}
	.st24{fill:url(#SVGID_9_);}
	.st25{display:inline;fill:url(#SVGID_10_);}
	.st26{display:inline;fill:url(#SVGID_11_);}
	.st27{display:inline;fill:url(#SVGID_12_);}
	.st28{fill:url(#SVGID_13_);}
	.st29{fill:url(#SVGID_14_);}
	.st30{fill:url(#SVGID_15_);}
	.st31{fill:url(#SVGID_16_);}
	.st32{fill:url(#SVGID_17_);}
	.st33{fill:url(#SVGID_18_);}
	.st34{fill:url(#SVGID_19_);}
	.st35{fill:url(#SVGID_20_);}
	.st36{fill:url(#SVGID_21_);}
	.st37{fill:url(#SVGID_22_);}
	.st38{fill:url(#SVGID_23_);}
</style>
<path
   style="fill:#cccccc"
   id="path4"
   d="M 58.4,104.5 C 31.9,104.5 10.3,85.2 10.3,61.6 v -5 C 10.3,33 32,13.7 58.4,13.7 h 67.5 c 1.7,-1.6 3.4,-3.1 5.3,-4.6 H 52.9 C 24.1,9 0.6,30.3 0.6,56.2 v 5.6 c 0,26 23.5,47.2 52.3,47.2 h 78.3 c -1.8,-1.4 -3.6,-2.9 -5.3,-4.6 H 58.4 Z"
   class="st0" /><path
   style="fill:#ffffff;fill-opacity:1"
   id="path6"
   d="m 9.1,56.5 v 5.1 c 0,23.7 21.7,43.1 48.3,43.1 h 67.7 C 113.2,93 105.8,76.9 105.8,59 105.8,41.1 113.2,25 125,13.4 H 57.4 C 30.8,13.4 9.1,32.8 9.1,56.5 Z"
   class="st1" /><path
   style="fill:#2a6b24;fill-opacity:1"
   id="path8"
   d="m 135.9,0.2 c -13.8,0 -26.4,4.7 -36.4,12.6 -1.7,1.3 -3.3,2.7 -4.9,4.3 -11,10.8 -17.9,25.7 -17.9,42.4 0,16.6 6.9,31.6 17.9,42.4 1.5,1.5 3.2,2.9 4.9,4.3 10.1,7.9 22.7,12.6 36.4,12.6 32.7,0 59.2,-26.5 59.2,-59.2 0,-32.9 -26.5,-59.4 -59.2,-59.4 z m 0,110.8 c -28.5,0 -51.6,-23.1 -51.6,-51.6 0,-28.5 23.1,-51.6 51.6,-51.6 28.5,0 51.6,23.1 51.6,51.6 0,28.5 -23.1,51.6 -51.6,51.6 z"
   class="st2" /><path
   style="fill:#5fbb46;fill-opacity:1"
   id="path10"
   d="m 135.9,6.9 c -29,0 -52.4,23.5 -52.4,52.4 0,29 23.5,52.4 52.4,52.4 29,0 52.4,-23.5 52.4,-52.4 0,-28.9 -23.5,-52.4 -52.4,-52.4 z"
   class="st3" /><g
   id="g17">
			<path
   class="st4"
   d="m 109.9,71.4 c -2.8,-3 -4.2,-7.1 -4.2,-12.3 0,-5.3 1.4,-9.5 4.2,-12.6 2.8,-3.1 6.6,-4.6 11.3,-4.6 4.8,0 8.6,1.5 11.3,4.6 2.8,3.1 4.2,7.3 4.2,12.6 0,5.2 -1.4,9.3 -4.2,12.3 -2.8,3 -6.6,4.5 -11.3,4.5 -4.7,0.1 -8.5,-1.5 -11.3,-4.5 z m 17.8,-4.1 c 1.6,-2 2.3,-4.7 2.3,-8.2 0,-3.6 -0.8,-6.4 -2.3,-8.4 -1.5,-2 -3.7,-3 -6.5,-3 -2.7,0 -4.9,1 -6.4,3 -1.5,2 -2.3,4.8 -2.3,8.4 0,3.5 0.8,6.2 2.3,8.2 1.5,2 3.7,3 6.4,3 2.7,0 5,-1.1 6.5,-3 z"
   id="path13"
   style="fill:#ffffff" />
			<path
   class="st4"
   d="m 145.9,75.1 h -3.1 -3.2 V 42.8 h 3.5 3.5 l 13,22.7 V 42.8 h 3.1 3.2 v 32.3 h -3.4 -3.4 L 145.8,51.8 v 23.3 z"
   id="path15"
   style="fill:#ffffff" />
		</g><g
   style="display:none"
   class="st5"
   id="off">
		<path
   style="display:inline;fill:#881b1a"
   id="path20"
   d="m 137.3,104.5 c 26.5,0 48.1,-19.3 48.1,-42.9 v -5 C 185.4,33 163.7,13.7 137.3,13.7 H 69.8 C 68.1,12.1 66.4,10.6 64.5,9.1 h 78.3 c 28.8,0 52.3,21.3 52.3,47.2 v 5.6 c 0,26 -23.5,47.2 -52.3,47.2 H 64.5 c 1.8,-1.4 3.6,-2.9 5.3,-4.6 z"
   class="st6" />
		<path
   style="display:inline;fill:#ed1c24"
   id="path22"
   d="m 186.4,56.6 v 5.1 c 0,23.7 -21.7,43 -48.1,43 H 70.8 C 82.6,93.1 90,77 90,59.1 90,41.2 82.6,25.1 70.8,13.6 h 67.5 c 26.4,0 48.1,19.3 48.1,43 z"
   class="st7" />
		<path
   style="display:inline;fill:#dbdbdd"
   id="path24"
   d="m 0.6,59.4 c 0,32.7 26.5,59.2 59.2,59.2 13.8,0 26.4,-4.7 36.4,-12.6 1.7,-1.3 3.3,-2.7 4.9,-4.3 C 112.2,91 119,76 119,59.4 119,42.8 112.1,27.8 101.1,17 99.6,15.5 97.9,14.1 96.2,12.7 86.2,4.9 73.6,0.2 59.8,0.2 27.1,0.2 0.6,26.7 0.6,59.4 Z m 7.6,0 C 8.2,30.9 31.3,7.8 59.8,7.8 88.3,7.8 111.4,30.9 111.4,59.4 111.4,87.9 88.3,111 59.8,111 31.3,111 8.2,87.9 8.2,59.4 Z"
   class="st8" />
		<path
   style="display:inline;fill:#b0b0b0"
   id="path26"
   d="m 7.4,59.4 c 0,29 23.5,52.4 52.4,52.4 29,0 52.4,-23.5 52.4,-52.4 C 112.2,30.4 88.7,7 59.8,7 30.8,6.9 7.4,30.4 7.4,59.4 Z"
   class="st9" />
		<g
   style="display:inline"
   id="g34"
   class="st10">
			<path
   style="fill:#ffffff"
   id="path28"
   d="m 21.9,71.4 c -2.8,-3 -4.2,-7.1 -4.2,-12.3 0,-5.3 1.4,-9.5 4.2,-12.6 2.8,-3.1 6.6,-4.6 11.3,-4.6 4.8,0 8.6,1.5 11.3,4.6 2.8,3.1 4.2,7.3 4.2,12.6 0,5.2 -1.4,9.3 -4.2,12.3 -2.8,3 -6.6,4.5 -11.3,4.5 -4.7,0.1 -8.5,-1.5 -11.3,-4.5 z m 17.8,-4.1 c 1.6,-2 2.3,-4.7 2.3,-8.2 0,-3.6 -0.8,-6.4 -2.3,-8.4 -1.5,-2 -3.7,-3 -6.5,-3 -2.7,0 -4.9,1 -6.4,3 -1.5,2 -2.3,4.8 -2.3,8.4 0,3.5 0.8,6.2 2.3,8.2 1.5,2 3.7,3 6.4,3 2.7,0 4.9,-1.1 6.5,-3 z"
   class="st4" />
			<path
   style="fill:#ffffff"
   id="path30"
   d="M 51.9,75.1 V 42.8 h 23 v 2.9 2.9 H 58.6 v 7.3 h 14.2 v 2.8 2.8 H 58.6 v 13.7 h -3.4 -3.3 z"
   class="st4" />
			<path
   style="fill:#ffffff"
   id="path32"
   d="M 77.1,75.1 V 42.8 h 23 v 2.9 2.9 H 83.9 v 7.3 H 98 v 2.8 2.8 H 83.9 v 13.7 h -3.4 -3.4 z"
   class="st4" />
		</g>
	</g><g
   style="display:none"
   class="st5"
   id="Toggle_On_ios">
		<g
   style="display:inline"
   class="st10"
   id="switch_on_4_">
			<path
   style="fill:#65bd61"
   d="m 195.3,59.2 c 0,32.4 -26.8,59.2 -59.4,59.2 H 59.4 C 26.8,118.3 0,91.6 0,59.2 v 0 C 0,26.7 26.8,0 59.4,0 H 136 c 32.5,0 59.3,26.4 59.3,59.2 z"
   class="st11"
   id="base_on_4_" />
			<ellipse
   style="fill:#ffffff"
   ry="53.400002"
   rx="53.599998"
   cy="59.200001"
   cx="137.89999"
   class="st4"
   id="circle_off_4_" />
		</g>
	</g><g
   style="display:none"
   class="st5"
   id="Toggle_off_ios">
		<path
   style="display:inline;fill:#cccccb"
   d="m 195.3,59.3 c 0,32.5 -26.8,59.3 -59.4,59.3 H 59.4 C 26.8,118.6 0,91.8 0,59.3 v 0 C 0.1,26.8 26.9,0 59.4,0 H 136 c 32.5,0 59.3,26.4 59.3,59.3 z"
   class="st12"
   id="base_on_3_" />
		<ellipse
   style="display:inline;fill:#ffffff"
   ry="53.5"
   rx="53.599998"
   cy="59.299999"
   cx="59.099998"
   class="st13"
   id="circle_off_3_" />
	</g><g
   style="display:none"
   class="st5"
   id="switch_off_plug">
		<rect
   style="display:inline;fill:#171717;stroke:#666766;stroke-width:2.79119992;stroke-miterlimit:10"
   id="rect44"
   height="115.7"
   width="192.3"
   class="st14"
   y="1.6"
   x="1.5" />
		<path
   id="path46"
   d="M 192.7,14.5" />
		<linearGradient
   y2="65.514603"
   x2="49.8354"
   y1="54.1507"
   x1="49.8354"
   gradientUnits="userSpaceOnUse"
   id="SVGID_1_">
			<stop
   id="stop48"
   style="stop-color:#A5A7AA"
   offset="0" />
			<stop
   id="stop50"
   style="stop-color:#6D6E71"
   offset="1" />
		</linearGradient>
		<rect
   style="display:inline;fill:url(#SVGID_1_)"
   id="rect53"
   height="28.799999"
   width="4.3000002"
   class="st15"
   y="42"
   x="47.700001" />
		<rect
   style="display:inline;stroke:#666766;stroke-width:2.79119992;stroke-miterlimit:10"
   id="rect55"
   height="115.7"
   width="192.3"
   class="st16"
   y="1.6"
   x="1.5" />
		<path
   style="display:inline"
   id="path57"
   d="M 192.7,14.5"
   class="st10" />
		<g
   style="display:inline"
   id="g93"
   class="st10">
			<linearGradient
   y2="59.384998"
   x2="184.4624"
   y1="59.384998"
   x1="10.8709"
   gradientUnits="userSpaceOnUse"
   id="SVGID_2_">
				<stop
   id="stop59"
   style="stop-color:#232323"
   offset="0" />
				<stop
   id="stop61"
   style="stop-color:#828486"
   offset="0.1683" />
				<stop
   id="stop63"
   style="stop-color:#6B6B6B"
   offset="1" />
			</linearGradient>
			<polygon
   style="fill:url(#SVGID_2_)"
   id="polygon66"
   points="99,30.6 29.6,27 26,27.5 10.9,34 10.9,83.8 26,91.2 29.6,91.8 98.9,89.1 184.5,89.1 184.5,30.6 "
   class="st17" />
			<polygon
   style="fill:#ffffff"
   id="polygon68"
   points="96.1,34.3 180.8,34.3 180.8,85.4 97.1,85.4 29.6,88.1 29.6,30.7 96.1,34.2 "
   class="st4" />
			<linearGradient
   y2="59.836601"
   x2="174.7773"
   y1="59.836601"
   x1="156.3018"
   gradientUnits="userSpaceOnUse"
   id="SVGID_3_">
				<stop
   id="stop70"
   style="stop-color:#F26122"
   offset="0" />
				<stop
   id="stop72"
   style="stop-color:#B31217"
   offset="1" />
			</linearGradient>
			<path
   style="fill:url(#SVGID_3_)"
   id="path75"
   d="m 174.8,59.8 c 0,-5.1 -4.2,-9.2 -9.2,-9.2 -5.1,0 -9.2,4.1 -9.2,9.2 0,5.1 4.1,9.2 9.2,9.2 5,0.1 9.2,-4.1 9.2,-9.2 z"
   class="st18" />
			<path
   style="fill:#ffffff"
   id="path77"
   d="m 160,59.8 c 0,-3.1 2.5,-5.5 5.5,-5.5 3.1,0 5.5,2.5 5.5,5.5 0,3.1 -2.5,5.5 -5.5,5.5 -3,0.1 -5.5,-2.4 -5.5,-5.5 z"
   class="st4" />
			<linearGradient
   y2="59.636398"
   x2="96.962601"
   y1="59.636398"
   x1="29.6485"
   gradientUnits="userSpaceOnUse"
   id="SVGID_4_">
				<stop
   id="stop79"
   style="stop-color:#FFFFFF"
   offset="0" />
				<stop
   id="stop81"
   style="stop-color:#D9D9D9"
   offset="1" />
			</linearGradient>
			<polygon
   style="fill:url(#SVGID_4_)"
   id="polygon84"
   points="29.6,88.3 96.3,85.4 96.3,34.2 29.6,30.9 "
   class="st19" />
			<linearGradient
   y2="68.693703"
   x2="48.9646"
   y1="57.3298"
   x1="48.9646"
   gradientUnits="userSpaceOnUse"
   id="SVGID_5_">
				<stop
   id="stop86"
   style="stop-color:#A5A7AA"
   offset="0" />
				<stop
   id="stop88"
   style="stop-color:#6D6E71"
   offset="1" />
			</linearGradient>
			<rect
   style="fill:url(#SVGID_5_)"
   id="rect91"
   height="28.799999"
   width="4.3000002"
   class="st20"
   y="45.099998"
   x="46.799999" />
		</g>
	</g><g
   style="display:none"
   class="st5"
   id="switch_on_plug">
		
			<rect
   style="display:inline;stroke:#666766;stroke-width:2.79119992;stroke-miterlimit:10"
   id="rect96"
   height="115.7"
   width="192.3"
   class="st16"
   transform="rotate(-180,97.66665,59.385)"
   y="1.6"
   x="1.5" />
		<path
   style="display:inline"
   id="path98"
   d="M 192.9,14.3"
   class="st10" />
		<g
   style="display:inline"
   id="g134"
   class="st10">
			
				<linearGradient
   gradientTransform="matrix(-1,0,0,1,195.6667,0)"
   y2="59.384998"
   x2="184.79581"
   y1="59.384998"
   x1="11.2042"
   gradientUnits="userSpaceOnUse"
   id="SVGID_6_">
				<stop
   id="stop100"
   style="stop-color:#232323"
   offset="0" />
				<stop
   id="stop102"
   style="stop-color:#828486"
   offset="0.1683" />
				<stop
   id="stop104"
   style="stop-color:#6B6B6B"
   offset="1" />
			</linearGradient>
			<polygon
   style="fill:url(#SVGID_6_)"
   id="polygon107"
   points="165.7,91.8 169.4,91.2 184.5,83.8 184.5,34 169.4,27.5 165.7,27 96.4,30.6 10.9,30.6 10.9,89.1 96.4,89.1 "
   class="st21" />
			<polygon
   style="fill:#ffffff"
   id="polygon109"
   points="14.6,85.4 14.6,34.3 99.2,34.3 99.2,34.2 165.7,30.7 165.7,88.1 98.3,85.4 "
   class="st4" />
			
				<linearGradient
   gradientTransform="matrix(-1,0,0,1,195.6667,0)"
   y2="59.636398"
   x2="97.295898"
   y1="59.636398"
   x1="29.9818"
   gradientUnits="userSpaceOnUse"
   id="SVGID_7_">
				<stop
   id="stop111"
   style="stop-color:#FFFFFF"
   offset="0" />
				<stop
   id="stop113"
   style="stop-color:#D9D9D9"
   offset="1" />
			</linearGradient>
			<polygon
   style="fill:url(#SVGID_7_)"
   id="polygon116"
   points="165.7,88.3 99,85.4 99,34.2 165.7,30.9 "
   class="st22" />
			<linearGradient
   y2="50.366798"
   x2="28.692301"
   y1="61.730801"
   x1="28.692301"
   gradientUnits="userSpaceOnUse"
   id="SVGID_8_">
				<stop
   id="stop118"
   style="stop-color:#1C803F"
   offset="0" />
				<stop
   id="stop120"
   style="stop-color:#2DB34A"
   offset="1" />
			</linearGradient>
			<rect
   style="fill:url(#SVGID_8_)"
   id="rect123"
   height="28.799999"
   width="4.3000002"
   class="st23"
   y="45.099998"
   x="26.5" />
			<linearGradient
   y2="59.836601"
   x2="156.5063"
   y1="59.836601"
   x1="138.0307"
   gradientUnits="userSpaceOnUse"
   id="SVGID_9_">
				<stop
   id="stop125"
   style="stop-color:#A5A7AA"
   offset="0" />
				<stop
   id="stop127"
   style="stop-color:#6D6E71"
   offset="1" />
			</linearGradient>
			<path
   style="fill:url(#SVGID_9_)"
   id="path130"
   d="m 156.5,59.8 c 0,-5.1 -4.2,-9.2 -9.2,-9.2 -5.1,0 -9.2,4.1 -9.2,9.2 0,5.1 4.1,9.2 9.2,9.2 5.1,0.1 9.2,-4.1 9.2,-9.2 z"
   class="st24" />
			<path
   style="fill:#ffffff"
   id="path132"
   d="m 141.7,59.8 c 0,-3.1 2.5,-5.5 5.5,-5.5 3.1,0 5.5,2.5 5.5,5.5 0,3.1 -2.5,5.5 -5.5,5.5 -3,0.1 -5.5,-2.4 -5.5,-5.5 z"
   class="st4" />
		</g>
	</g><g
   style="display:none"
   class="st5"
   id="Switch_off_scritta">
		<rect
   style="display:inline;fill:#171717;stroke:#666766;stroke-width:2.79119992;stroke-miterlimit:10"
   id="rect137"
   height="115.7"
   width="192.3"
   class="st14"
   y="1.6"
   x="1.5" />
		<linearGradient
   y2="56.205898"
   x2="185.33321"
   y1="56.205898"
   x1="11.7417"
   gradientUnits="userSpaceOnUse"
   id="SVGID_10_">
			<stop
   id="stop139"
   style="stop-color:#232323"
   offset="0" />
			<stop
   id="stop141"
   style="stop-color:#828486"
   offset="0.1683" />
			<stop
   id="stop143"
   style="stop-color:#6B6B6B"
   offset="1" />
		</linearGradient>
		<polygon
   style="display:inline;fill:url(#SVGID_10_)"
   id="polygon146"
   points="99.9,27.4 30.5,23.8 26.8,24.4 11.7,30.8 11.7,80.6 26.8,88 30.5,88.6 99.8,85.9 185.3,85.9 185.3,27.4 "
   class="st25" />
		<polygon
   style="display:inline;fill:#ffffff"
   id="polygon148"
   points="97,31.1 181.6,31.1 181.6,82.2 97.9,82.2 30.5,84.9 30.5,27.5 97,31 "
   class="st13" />
		<linearGradient
   y2="56.457298"
   x2="97.833397"
   y1="56.457298"
   x1="30.5193"
   gradientUnits="userSpaceOnUse"
   id="SVGID_11_">
			<stop
   id="stop150"
   style="stop-color:#FFFFFF"
   offset="0" />
			<stop
   id="stop152"
   style="stop-color:#D9D9D9"
   offset="1" />
		</linearGradient>
		<polygon
   style="display:inline;fill:url(#SVGID_11_)"
   id="polygon155"
   points="30.5,85.2 97.2,82.2 97.2,31 30.5,27.8 "
   class="st26" />
		<linearGradient
   y2="65.514603"
   x2="49.8354"
   y1="54.1507"
   x1="49.8354"
   gradientUnits="userSpaceOnUse"
   id="SVGID_12_">
			<stop
   id="stop157"
   style="stop-color:#A5A7AA"
   offset="0" />
			<stop
   id="stop159"
   style="stop-color:#6D6E71"
   offset="1" />
		</linearGradient>
		<rect
   style="display:inline;fill:url(#SVGID_12_)"
   id="rect162"
   height="28.799999"
   width="4.3000002"
   class="st27"
   y="42"
   x="47.700001" />
		<rect
   style="display:inline;stroke:#666766;stroke-width:2.79119992;stroke-miterlimit:10"
   id="rect164"
   height="115.7"
   width="192.3"
   class="st16"
   y="1.6"
   x="1.5" />
		<g
   style="display:inline"
   id="g214"
   class="st10">
			<linearGradient
   y2="59.384998"
   x2="184.4624"
   y1="59.384998"
   x1="10.8709"
   gradientUnits="userSpaceOnUse"
   id="SVGID_13_">
				<stop
   id="stop166"
   style="stop-color:#232323"
   offset="0" />
				<stop
   id="stop168"
   style="stop-color:#828486"
   offset="0.1683" />
				<stop
   id="stop170"
   style="stop-color:#6B6B6B"
   offset="1" />
			</linearGradient>
			<polygon
   style="fill:url(#SVGID_13_)"
   id="polygon173"
   points="99,30.6 29.6,27 26,27.5 10.9,34 10.9,83.8 26,91.2 29.6,91.8 98.9,89.1 184.5,89.1 184.5,30.6 "
   class="st28" />
			<polygon
   style="fill:#ffffff"
   id="polygon175"
   points="96.1,34.3 180.8,34.3 180.8,85.4 97.1,85.4 29.6,88.1 29.6,30.7 96.1,34.2 "
   class="st4" />
			<linearGradient
   y2="59.636398"
   x2="96.962601"
   y1="59.636398"
   x1="29.6485"
   gradientUnits="userSpaceOnUse"
   id="SVGID_14_">
				<stop
   id="stop177"
   style="stop-color:#FFFFFF"
   offset="0" />
				<stop
   id="stop179"
   style="stop-color:#D9D9D9"
   offset="1" />
			</linearGradient>
			<polygon
   style="fill:url(#SVGID_14_)"
   id="polygon182"
   points="29.6,88.3 96.3,85.4 96.3,34.2 29.6,30.9 "
   class="st29" />
			<linearGradient
   y2="68.693703"
   x2="48.9646"
   y1="57.3298"
   x1="48.9646"
   gradientUnits="userSpaceOnUse"
   id="SVGID_15_">
				<stop
   id="stop184"
   style="stop-color:#A5A7AA"
   offset="0" />
				<stop
   id="stop186"
   style="stop-color:#6D6E71"
   offset="1" />
			</linearGradient>
			<rect
   style="fill:url(#SVGID_15_)"
   id="rect189"
   height="28.799999"
   width="4.3000002"
   class="st30"
   y="45.099998"
   x="46.799999" />
			<g
   id="g212">
				<linearGradient
   y2="71.512398"
   x2="119.6168"
   y1="56.512402"
   x1="119.6168"
   gradientUnits="userSpaceOnUse"
   id="SVGID_16_">
					<stop
   id="stop191"
   style="stop-color:#F26122"
   offset="0" />
					<stop
   id="stop193"
   style="stop-color:#B31217"
   offset="1" />
				</linearGradient>
				<path
   style="fill:url(#SVGID_16_)"
   id="path196"
   d="m 110.9,69.4 c -2.2,-2.3 -3.2,-5.5 -3.2,-9.5 0,-4.1 1.1,-7.3 3.2,-9.7 2.2,-2.4 5.1,-3.6 8.7,-3.6 3.7,0 6.6,1.2 8.7,3.6 2.2,2.4 3.2,5.6 3.2,9.7 0,4 -1.1,7.1 -3.2,9.5 -2.2,2.3 -5.1,3.5 -8.7,3.5 -3.7,0 -6.6,-1.1 -8.7,-3.5 z m 13.7,-3.2 c 1.2,-1.5 1.8,-3.6 1.8,-6.3 0,-2.8 -0.6,-4.9 -1.8,-6.5 -1.2,-1.6 -2.9,-2.3 -5,-2.3 -2.1,0 -3.8,0.8 -5,2.3 -1.2,1.6 -1.8,3.7 -1.8,6.5 0,2.7 0.6,4.8 1.8,6.3 1.2,1.5 2.8,2.3 5,2.3 2.2,0 3.8,-0.7 5,-2.3 z"
   class="st31" />
				<linearGradient
   y2="71.512398"
   x2="142.8766"
   y1="56.512402"
   x1="142.8766"
   gradientUnits="userSpaceOnUse"
   id="SVGID_17_">
					<stop
   id="stop198"
   style="stop-color:#F26122"
   offset="0" />
					<stop
   id="stop200"
   style="stop-color:#B31217"
   offset="1" />
				</linearGradient>
				<path
   style="fill:url(#SVGID_17_)"
   id="path203"
   d="M 134,72.3 V 47.4 h 17.7 v 2.2 2.2 h -12.5 v 5.7 h 10.9 v 2.1 2.2 h -10.9 v 10.5 h -2.6 z"
   class="st32" />
				<linearGradient
   y2="71.512398"
   x2="162.3336"
   y1="56.512402"
   x1="162.3336"
   gradientUnits="userSpaceOnUse"
   id="SVGID_18_">
					<stop
   id="stop205"
   style="stop-color:#F26122"
   offset="0" />
					<stop
   id="stop207"
   style="stop-color:#B31217"
   offset="1" />
				</linearGradient>
				<path
   style="fill:url(#SVGID_18_)"
   id="path210"
   d="M 153.5,72.3 V 47.4 h 17.7 v 2.2 2.2 h -12.5 v 5.7 h 10.9 v 2.1 2.2 h -10.9 v 10.5 h -2.6 z"
   class="st33" />
			</g>
		</g>
	</g><g
   style="display:none"
   class="st5"
   id="switch_ON_scritta">
		
			<rect
   style="display:inline;stroke:#666766;stroke-width:2.79119992;stroke-miterlimit:10"
   id="rect217"
   height="115.7"
   width="192.3"
   class="st16"
   transform="rotate(-180,97.66665,59.385)"
   y="1.6"
   x="1.5" />
		<path
   style="display:inline"
   id="path219"
   d="M 192.9,14.3"
   class="st10" />
		<g
   style="display:inline"
   id="g264"
   class="st10">
			
				<linearGradient
   gradientTransform="matrix(-1,0,0,1,195.6667,0)"
   y2="59.384998"
   x2="184.79581"
   y1="59.384998"
   x1="11.2042"
   gradientUnits="userSpaceOnUse"
   id="SVGID_19_">
				<stop
   id="stop221"
   style="stop-color:#232323"
   offset="0" />
				<stop
   id="stop223"
   style="stop-color:#828486"
   offset="0.1683" />
				<stop
   id="stop225"
   style="stop-color:#6B6B6B"
   offset="1" />
			</linearGradient>
			<polygon
   style="fill:url(#SVGID_19_)"
   id="polygon228"
   points="165.7,91.8 169.4,91.2 184.5,83.8 184.5,34 169.4,27.5 165.7,27 96.4,30.6 10.9,30.6 10.9,89.1 96.4,89.1 "
   class="st34" />
			<polygon
   style="fill:#ffffff"
   id="polygon230"
   points="14.6,85.4 14.6,34.3 99.2,34.3 99.2,34.2 165.7,30.7 165.7,88.1 98.3,85.4 "
   class="st4" />
			
				<linearGradient
   gradientTransform="matrix(-1,0,0,1,195.6667,0)"
   y2="59.636398"
   x2="97.295898"
   y1="59.636398"
   x1="29.9818"
   gradientUnits="userSpaceOnUse"
   id="SVGID_20_">
				<stop
   id="stop232"
   style="stop-color:#FFFFFF"
   offset="0" />
				<stop
   id="stop234"
   style="stop-color:#D9D9D9"
   offset="1" />
			</linearGradient>
			<polygon
   style="fill:url(#SVGID_20_)"
   id="polygon237"
   points="165.7,88.3 99,85.4 99,34.2 165.7,30.9 "
   class="st35" />
			<linearGradient
   y2="59.836601"
   x2="156.5063"
   y1="59.836601"
   x1="138.0307"
   gradientUnits="userSpaceOnUse"
   id="SVGID_21_">
				<stop
   id="stop239"
   style="stop-color:#A5A7AA"
   offset="0" />
				<stop
   id="stop241"
   style="stop-color:#6D6E71"
   offset="1" />
			</linearGradient>
			<path
   style="fill:url(#SVGID_21_)"
   id="path244"
   d="m 156.5,59.8 c 0,-5.1 -4.2,-9.2 -9.2,-9.2 -5.1,0 -9.2,4.1 -9.2,9.2 0,5.1 4.1,9.2 9.2,9.2 5.1,0.1 9.2,-4.1 9.2,-9.2 z"
   class="st36" />
			<path
   style="fill:#ffffff"
   id="path246"
   d="m 141.7,59.8 c 0,-3.1 2.5,-5.5 5.5,-5.5 3.1,0 5.5,2.5 5.5,5.5 0,3.1 -2.5,5.5 -5.5,5.5 -3,0.1 -5.5,-2.4 -5.5,-5.5 z"
   class="st4" />
			<g
   id="g262">
				<linearGradient
   y2="49.443199"
   x2="40.502899"
   y1="69.836601"
   x1="40.502899"
   gradientUnits="userSpaceOnUse"
   id="SVGID_22_">
					<stop
   id="stop248"
   style="stop-color:#1C803F"
   offset="0" />
					<stop
   id="stop250"
   style="stop-color:#2DB34A"
   offset="1" />
				</linearGradient>
				<path
   style="fill:url(#SVGID_22_)"
   id="path253"
   d="m 31.7,69.6 c -2.2,-2.3 -3.2,-5.5 -3.2,-9.5 0,-4.1 1.1,-7.3 3.2,-9.7 2.2,-2.4 5.1,-3.6 8.8,-3.6 3.7,0 6.6,1.2 8.8,3.6 2.2,2.4 3.2,5.6 3.2,9.7 0,4 -1.1,7.2 -3.2,9.5 -2.2,2.3 -5.1,3.5 -8.8,3.5 -3.7,0 -6.6,-1.2 -8.8,-3.5 z m 13.8,-3.2 c 1.2,-1.5 1.8,-3.6 1.8,-6.4 0,-2.8 -0.6,-4.9 -1.8,-6.5 -1.2,-1.6 -2.9,-2.3 -5,-2.3 -2.1,0 -3.8,0.8 -5,2.3 -1.2,1.6 -1.8,3.7 -1.8,6.5 0,2.7 0.6,4.8 1.8,6.4 1.2,1.5 2.9,2.3 5,2.3 2.1,0 3.8,-0.8 5,-2.3 z"
   class="st37" />
				<linearGradient
   y2="49.443199"
   x2="64.9067"
   y1="69.836601"
   x1="64.9067"
   gradientUnits="userSpaceOnUse"
   id="SVGID_23_">
					<stop
   id="stop255"
   style="stop-color:#1C803F"
   offset="0" />
					<stop
   id="stop257"
   style="stop-color:#2DB34A"
   offset="1" />
				</linearGradient>
				<path
   style="fill:url(#SVGID_23_)"
   id="path260"
   d="m 59.6,72.4 h -2.4 -2.4 v -25 h 2.7 2.7 L 70.2,65 V 47.4 h 2.4 2.4 v 25 h -2.6 -2.6 l -10.3,-18 v 18 z"
   class="st38" />
			</g>
		</g>
	</g>
<g
   id="Livello_3">
	<g
   id="Livello_5">
	</g>
</g>
</svg>