<?xml version="1.0" encoding="UTF-8" standalone="no"?>
<svg
   xmlns:dc="http://purl.org/dc/elements/1.1/"
   xmlns:cc="http://creativecommons.org/ns#"
   xmlns:rdf="http://www.w3.org/1999/02/22-rdf-syntax-ns#"
   xmlns:svg="http://www.w3.org/2000/svg"
   xmlns="http://www.w3.org/2000/svg"
   id="svg8"
   version="1.1"
   viewBox="0 0 51.46146 31.32667"
   height="31.32667mm"
   width="51.46146mm">
  <defs
     id="defs2" />
  <metadata
     id="metadata5">
    <rdf:RDF>
      <cc:Work
         rdf:about="">
        <dc:format>image/svg+xml</dc:format>
        <dc:type
           rdf:resource="http://purl.org/dc/dcmitype/StillImage" />
        <dc:title></dc:title>
      </cc:Work>
    </rdf:RDF>
  </metadata>
  <g
     transform="translate(-66.495461,-111.24738)"
     id="layer1">
    <path
       style="fill:#cccccc;stroke-width:0.26458332"
       id="path20"
       d="m 102.664,138.84342 c 7.01146,0 12.72646,-5.10646 12.72646,-11.35062 v -1.32292 c 0,-6.24417 -5.74146,-11.35062 -12.72646,-11.35062 H 84.804628 c -0.449792,-0.42334 -0.899584,-0.82021 -1.402292,-1.21709 h 20.716874 c 7.62,0 13.83771,5.63563 13.83771,12.48834 v 1.48166 c 0,6.87917 -6.21771,12.48834 -13.83771,12.48834 H 83.402336 c 0.47625,-0.37042 0.9525,-0.7673 1.402292,-1.21709 z"
       class="st7" />
    <path
       style="fill:#ffffff;stroke-width:0.26458332"
       id="path22"
       d="m 115.65504,126.16988 v 1.34938 c 0,6.27062 -5.74145,11.37708 -12.72645,11.37708 H 85.069211 c 3.122083,-3.06917 5.08,-7.32896 5.08,-12.065 0,-4.73604 -1.957917,-8.99583 -5.08,-12.03854 h 17.859379 c 6.985,0 12.72645,5.10646 12.72645,11.37708 z"
       class="st8" />
    <path
       style="fill:#881b1a;fill-opacity:1;stroke-width:0.26458332"
       id="path24"
       d="m 66.495461,126.91071 c 0,8.65188 7.011459,15.66334 15.663333,15.66334 3.65125,0 6.985,-1.24354 9.630834,-3.33375 0.449791,-0.34396 0.873125,-0.71438 1.296458,-1.13771 2.936875,-2.83104 4.736042,-6.79979 4.736042,-11.19188 0,-4.39208 -1.825625,-8.36083 -4.736042,-11.21833 -0.396875,-0.39687 -0.846667,-0.76729 -1.296458,-1.13771 -2.645834,-2.06375 -5.979584,-3.30729 -9.630834,-3.30729 -8.651874,0 -15.663333,7.01146 -15.663333,15.66333 z m 2.010834,0 c 0,-7.54062 6.111875,-13.6525 13.652499,-13.6525 7.540625,0 13.6525,6.11188 13.6525,13.6525 0,7.54063 -6.111875,13.6525 -13.6525,13.6525 -7.540624,0 -13.652499,-6.11187 -13.652499,-13.6525 z"
       class="st4" />
    <path
       style="fill:#ed1c24;fill-opacity:1;stroke-width:0.26458332"
       id="path26"
       d="m 68.294628,126.91071 c 0,7.67292 6.217708,13.86417 13.864166,13.86417 7.672917,0 13.864167,-6.21771 13.864167,-13.86417 0,-7.67291 -6.217708,-13.86416 -13.864167,-13.86416 -7.672916,-0.0265 -13.864166,6.19125 -13.864166,13.86416 z"
       class="st5" />
    <g
       id="g34"
       transform="matrix(0.26458333,0,0,0.26458333,66.336711,111.19446)">
      <path
         style="fill:#ffffff"
         id="path28"
         d="m 21.9,71.4 c -2.8,-3 -4.2,-7.1 -4.2,-12.3 0,-5.3 1.4,-9.5 4.2,-12.6 2.8,-3.1 6.6,-4.6 11.3,-4.6 4.8,0 8.6,1.5 11.3,4.6 2.8,3.1 4.2,7.3 4.2,12.6 0,5.2 -1.4,9.3 -4.2,12.3 -2.8,3 -6.6,4.5 -11.3,4.5 -4.7,0.1 -8.5,-1.5 -11.3,-4.5 z m 17.8,-4.1 c 1.6,-2 2.3,-4.7 2.3,-8.2 0,-3.6 -0.8,-6.4 -2.3,-8.4 -1.5,-2 -3.7,-3 -6.5,-3 -2.7,0 -4.9,1 -6.4,3 -1.5,2 -2.3,4.8 -2.3,8.4 0,3.5 0.8,6.2 2.3,8.2 1.5,2 3.7,3 6.4,3 2.7,0 4.9,-1.1 6.5,-3 z"
         class="st6" />
      <path
         style="fill:#ffffff"
         id="path30"
         d="M 51.9,75.1 V 42.8 h 23 v 2.9 2.9 H 58.6 v 7.3 h 14.2 v 2.8 2.8 H 58.6 v 13.7 h -3.4 -3.3 z"
         class="st6" />
      <path
         style="fill:#ffffff"
         id="path32"
         d="M 77.1,75.1 V 42.8 h 23 v 2.9 2.9 H 83.9 v 7.3 H 98 v 2.8 2.8 H 83.9 v 13.7 h -3.4 -3.4 z"
         class="st6" />
    </g>
  </g>
</svg>
